<?xml version="1.0" standalone="no"?>
<!DOCTYPE svg PUBLIC "-//W3C//DTD SVG 20010904//EN"
 "http://www.w3.org/TR/2001/REC-SVG-20010904/DTD/svg10.dtd">
<svg version="1.0" xmlns="http://www.w3.org/2000/svg"
 width="96.000000pt" height="96.000000pt" viewBox="0 0 96.000000 96.000000"
 preserveAspectRatio="xMidYMid meet">

<g transform="translate(0.000000,96.000000) scale(0.100000,-0.100000)"
fill="#000000" stroke="none">
<path d="M672 448 c-8 -8 -12 -64 -12 -184 0 -200 5 -214 64 -169 l34 26 28
-60 c15 -34 28 -61 29 -61 16 0 95 44 95 53 0 7 -11 35 -24 64 -13 28 -22 54
-18 57 3 3 20 6 37 6 18 0 39 7 46 16 11 14 5 24 -51 77 -36 33 -95 89 -132
124 -70 66 -77 70 -96 51z m228 -230 c0 -4 -17 -8 -38 -8 -21 0 -41 -3 -45 -6
-3 -3 8 -35 24 -71 16 -36 26 -69 23 -74 -14 -23 -36 -4 -64 58 l-30 66 -23
-20 c-47 -43 -47 -43 -47 107 l0 141 100 -92 c55 -52 100 -97 100 -101z"/>
</g>
</svg>
